<svg id="Layer_1" height="512" viewBox="0 0 512 512" width="512" xmlns="http://www.w3.org/2000/svg" data-name="Layer 1"><path d="m257.19 232.53v-32.14c0-35.39-38.16-71.8-63.61-71.8h-104.14c-25.46 0-71.91 34.39-72.92 71.8v251.8c0 12.78 13.51 27.3 26.29 27.3h192.13c12.78 0 22.25-14.52 22.25-27.3v-53.82h-.01v-165.84z" fill="#e2edfc"/><path d="m78.53 232.53h178.649v165.84h-178.649z" fill="#f4f8fc"/><path d="m495.48 350.97a38.973 38.973 0 0 1 -3.97 17.11l-20.33 41.66-70.24-34.28 20.34-41.66a39.08 39.08 0 0 1 74.2 17.17z" fill="#a0eaea"/><path d="m413.99 293.68a38.983 38.983 0 0 1 -3.97 17.12l-20.34 41.66-70.23-34.29 20.33-41.66a39.089 39.089 0 0 1 74.21 17.17z" fill="#a0eaea"/><path d="m471.18 409.74-20.34 41.66a39.079 39.079 0 1 1 -70.24-34.28l20.34-41.66z" fill="#72bcef"/><path d="m389.68 352.46-20.34 41.66a39.077 39.077 0 0 1 -70.23-34.29l20.34-41.66z" fill="#72bcef"/><path d="m222.44 305.33v25.29a2.029 2.029 0 0 1 -2.03 2.02h-34.38a2.021 2.021 0 0 0 -2.02 2.02v34.38a2.014 2.014 0 0 1 -2.02 2.02h-25.28a2.023 2.023 0 0 1 -2.03-2.02v-34.38a2.014 2.014 0 0 0 -2.02-2.02h-34.38a2.021 2.021 0 0 1 -2.02-2.02v-25.29a2.021 2.021 0 0 1 2.02-2.02h34.38a2.014 2.014 0 0 0 2.02-2.02v-34.38a2.023 2.023 0 0 1 2.03-2.02h25.28a2.014 2.014 0 0 1 2.02 2.02v34.38a2.021 2.021 0 0 0 2.02 2.02h34.38a2.029 2.029 0 0 1 2.03 2.02z" fill="#7ae280"/><g fill="#92b4dd"><path d="m241.01 51.31v58.48a18.806 18.806 0 0 1 -18.81 18.8h-14.56v-96.08h14.56a18.806 18.806 0 0 1 18.81 18.8z"/><path d="m172.25 128.58v.01h-36.41v-.01-96.06-.01h36.41v.01z"/><path d="m65.06 32.51v.01 96.06.01h36.4v-.01-96.06-.01z"/></g><path d="m172.25 32.51v.01 96.06.01h35.39v-.01-96.06-.01z" fill="#a8c8fb"/><path d="m135.84 128.58v.01h-34.38v-.01-96.06-.01h34.38v.01z" fill="#a8c8fb"/><path d="m65.06 128.58v.01h-13.56a18.8 18.8 0 0 1 -18.8-18.8v-58.48a18.8 18.8 0 0 1 18.8-18.8h13.56z" fill="#a8c8fb"/><path d="m46.52 452.19v-251.8c1.01-37.41 47.46-71.8 72.92-71.8h-30c-25.46 0-71.91 34.39-72.92 71.8v251.8c0 12.78 13.51 27.3 26.29 27.3h30c-12.78 0-26.29-14.52-26.29-27.3z" fill="#c6d4e5"/><path d="m483.132 322.445a39.056 39.056 0 0 0 -61.852 11.355l-20.34 41.66 20.094 9.807 20.246-41.467a39.082 39.082 0 0 1 41.852-21.355z" fill="#7fc6c2"/><path d="m401.638 265.165a39.072 39.072 0 0 0 -61.858 11.345l-20.33 41.66 20.093 9.81 20.237-41.47a39.094 39.094 0 0 1 41.858-21.345z" fill="#7fc6c2"/><path d="m400.6 427.12 20.34-41.66-20-10-20.34 41.66a39.079 39.079 0 0 0 28.359 55.63 39.087 39.087 0 0 1 -8.359-45.63z" fill="#52a6cc"/><path d="m319.11 369.83 20.34-41.66-20-10-20.34 41.66a39.069 39.069 0 0 0 28.353 55.63 39.09 39.09 0 0 1 -8.353-45.63z" fill="#52a6cc"/><path d="m78.53 232.53h30v165.84h-30z" fill="#d9dee2"/><path d="m345.313 308.665a6 6 0 0 1 -5.386-8.634l7.457-15.276a33.418 33.418 0 0 1 19.29-17.053 6 6 0 1 1 3.9 11.347 21.5 21.5 0 0 0 -12.409 10.971l-7.455 15.28a6 6 0 0 1 -5.397 3.365z" fill="#c7fffd"/><path d="m426.808 365.949a6 6 0 0 1 -5.387-8.634l7.457-15.274a33.413 33.413 0 0 1 19.29-17.055 6 6 0 1 1 3.9 11.348 21.493 21.493 0 0 0 -12.408 10.97l-7.46 15.276a6 6 0 0 1 -5.392 3.369z" fill="#c7fffd"/><path d="m46.605 406.411a6 6 0 0 1 -6-6v-144.348a6 6 0 0 1 12 0v144.348a6 6 0 0 1 -6 6z" fill="#a1b3c6"/><path d="m46 242.252a6 6 0 0 1 -6-6v-4.289a6 6 0 1 1 12 0v4.289a6 6 0 0 1 -6 6z" fill="#a1b3c6"/></svg>