<svg id="Layer_3" enable-background="new 0 0 64 64" height="512" viewBox="0 0 64 64" width="512" xmlns="http://www.w3.org/2000/svg"><g><path d="m40 34h-5v-5h-6v5h-5v6h5v5h6v-5h5z" fill="#f4b2b0"/><g fill="#b3404a"><path d="m58 19h-6v-3c0-.553-.448-1-1-1h-1.001v-3c0-3.859-3.14-7-7-7h-21.999c-3.86 0-7 3.14-7 7v3h-1c-.553 0-1 .447-1 1v3h-6.001c-2.757 0-5 2.243-5 5v25.999c0 2.757 2.243 5 5 5h.501l2.7 3.6c.189.252.485.399.8.399h6c.315 0 .611-.147.8-.399l2.7-3.6h25l2.7 3.6c.189.252.485.399.8.399h6c.315 0 .611-.147.8-.399l2.7-3.6h.5c2.757 0 5-2.243 5-5v-25.999c0-2.757-2.244-5-5-5zm-8 0h-6v-2h6zm-29-4h-1v-3c0-.552.448-1 1-1h22c.552 0 1 .448 1 1v3h-1c-.553 0-1 .447-1 1v3h-20v-3c0-.553-.448-1-1-1zm25 6h2v1.999h-2zm-30-9.001c0-2.757 2.243-5 5-5h22c2.757 0 5 2.243 5 5v3h-2v-3c0-1.654-1.346-3-3-3h-22c-1.654 0-3 1.346-3 3v3h-2zm-2 5.001h6v2h-6zm2 4h2v1.999h-2zm-10.001 0h8v2.999c0 .553.447 1 1 1h4c.553 0 1-.447 1-1v-2.999h24v2.999c0 .553.447 1 1 1h4c.553 0 1-.447 1-1v-2.999h8c1.654 0 3 1.346 3 3v3h-20.705c-2.253-1.872-5.144-3-8.295-3s-6.043 1.128-8.295 3h-20.705v-3c0-1.654 1.346-3 3-3zm15.001 15.999c0-6.065 4.935-11 11-11s11 4.934 11 11c0 6.064-4.935 10.999-11 10.999-6.066 0-11-4.935-11-10.999zm.774 8-18.775.001v-16.001h18.775c-1.732 2.209-2.775 4.982-2.775 8 .001 3.018 1.043 5.792 2.775 8zm23.225-8c0-3.018-1.043-5.791-2.775-8h18.776v16h-18.776c1.732-2.208 2.775-4.982 2.775-8zm-29.499 19.999h-5l-1.5-1.999h7.999zm38 0h-5l-1.5-1.999h7.999zm4.5-3.999h-52c-1.654 0-3-1.347-3-3v-2.999l20.705-.002c2.253 1.872 5.144 3 8.295 3s6.042-1.128 8.295-3h20.705v3.001c0 1.653-1.347 3-3 3z"/><path d="m28 44.998c0 .553.447 1 1 1h6c.553 0 1-.447 1-1v-4h4c.553 0 1-.447 1-1v-5.999c0-.553-.447-1-1-1h-4v-4c0-.553-.447-1-1-1h-6c-.553 0-1 .447-1 1v4h-4c-.553 0-1 .447-1 1v5.999c0 .553.447 1 1 1h4zm-3-6v-3.999h4c.552 0 1-.448 1-1v-4h4v4c0 .552.448 1 1 1h4v3.999h-4c-.552 0-1 .448-1 1v4h-4v-4c0-.552-.448-1-1-1z"/></g></g></svg>